<mxfile host="app.diagrams.net" modified="2025-07-15T14:38:05.000Z" agent="5.0" etag="draw.io" version="24.7.17">
  <diagram name="帝国の興亡サイクル全体図" id="empire-cycle-overview">
    <mxGraphModel dx="1422" dy="794" grid="1" gridSize="10" guides="1" tooltips="1" connect="1" arrows="1" fold="1" page="1" pageScale="1" pageWidth="1600" pageHeight="1200" math="0" shadow="0">
      <root>
        <mxCell id="0" />
        <mxCell id="1" parent="0" />
        
        <!-- タイトル -->
        <mxCell id="title" value="帝国の興亡サイクル（ビッグサイクル）" style="text;html=1;strokeColor=none;fillColor=none;align=center;verticalAlign=middle;whiteSpace=wrap;rounded=0;fontSize=20;fontStyle=1;" vertex="1" parent="1">
          <mxGeometry x="600" y="30" width="400" height="30" as="geometry" />
        </mxCell>
        
        <!-- 帝国エンティティ -->
        <mxCell id="dutch-empire" value="オランダ帝国&lt;br&gt;17世紀" style="rounded=1;whiteSpace=wrap;html=1;fillColor=#E8F5E9;strokeColor=#2E7D32;strokeWidth=2;" vertex="1" parent="1">
          <mxGeometry x="200" y="150" width="120" height="60" as="geometry" />
        </mxCell>
        
        <mxCell id="british-empire" value="大英帝国&lt;br&gt;18-19世紀" style="rounded=1;whiteSpace=wrap;html=1;fillColor=#E8F5E9;strokeColor=#2E7D32;strokeWidth=2;" vertex="1" parent="1">
          <mxGeometry x="400" y="150" width="120" height="60" as="geometry" />
        </mxCell>
        
        <mxCell id="american-empire" value="アメリカ帝国&lt;br&gt;20-21世紀" style="rounded=1;whiteSpace=wrap;html=1;fillColor=#E8F5E9;strokeColor=#2E7D32;strokeWidth=2;" vertex="1" parent="1">
          <mxGeometry x="600" y="150" width="120" height="60" as="geometry" />
        </mxCell>
        
        <mxCell id="chinese-empire" value="中国帝国&lt;br&gt;21世紀～" style="rounded=1;whiteSpace=wrap;html=1;fillColor=#E8F5E9;strokeColor=#2E7D32;strokeWidth=2;" vertex="1" parent="1">
          <mxGeometry x="800" y="150" width="120" height="60" as="geometry" />
        </mxCell>
        
        <!-- プロセス（段階） -->
        <mxCell id="rising-phase" value="上昇段階" style="ellipse;whiteSpace=wrap;html=1;fillColor=#FFFDE7;strokeColor=#FBC02D;strokeWidth=2;" vertex="1" parent="1">
          <mxGeometry x="300" y="300" width="100" height="60" as="geometry" />
        </mxCell>
        
        <mxCell id="peak-phase" value="ピーク段階" style="ellipse;whiteSpace=wrap;html=1;fillColor=#FFFDE7;strokeColor=#FBC02D;strokeWidth=2;" vertex="1" parent="1">
          <mxGeometry x="500" y="300" width="100" height="60" as="geometry" />
        </mxCell>
        
        <mxCell id="decline-phase" value="衰退段階" style="ellipse;whiteSpace=wrap;html=1;fillColor=#FFFDE7;strokeColor=#FBC02D;strokeWidth=2;" vertex="1" parent="1">
          <mxGeometry x="700" y="300" width="100" height="60" as="geometry" />
        </mxCell>
        
        <!-- 判定ポイント -->
        <mxCell id="war-victory" value="戦争に&lt;br&gt;勝利したか？" style="rhombus;whiteSpace=wrap;html=1;fillColor=#F3E5F5;strokeColor=#7B1FA2;strokeWidth=2;" vertex="1" parent="1">
          <mxGeometry x="180" y="450" width="100" height="80" as="geometry" />
        </mxCell>
        
        <mxCell id="fiscal-health" value="財政は&lt;br&gt;健全か？" style="rhombus;whiteSpace=wrap;html=1;fillColor=#F3E5F5;strokeColor=#7B1FA2;strokeWidth=2;" vertex="1" parent="1">
          <mxGeometry x="450" y="450" width="100" height="80" as="geometry" />
        </mxCell>
        
        <mxCell id="internal-conflict" value="内部紛争は&lt;br&gt;激化したか？" style="rhombus;whiteSpace=wrap;html=1;fillColor=#F3E5F5;strokeColor=#7B1FA2;strokeWidth=2;" vertex="1" parent="1">
          <mxGeometry x="650" y="450" width="100" height="80" as="geometry" />
        </mxCell>
        
        <mxCell id="new-challenger" value="新たな挑戦者が&lt;br&gt;現れたか？" style="rhombus;whiteSpace=wrap;html=1;fillColor=#F3E5F5;strokeColor=#7B1FA2;strokeWidth=2;" vertex="1" parent="1">
          <mxGeometry x="850" y="450" width="100" height="80" as="geometry" />
        </mxCell>
        
        <!-- データストア -->
        <mxCell id="historical-data" value="歴史データ&lt;br&gt;500年間" style="shape=cylinder3;whiteSpace=wrap;html=1;boundedLbl=1;backgroundOutline=1;size=15;fillColor=#E0F7FA;strokeColor=#006064;strokeWidth=2;" vertex="1" parent="1">
          <mxGeometry x="100" y="600" width="120" height="80" as="geometry" />
        </mxCell>
        
        <mxCell id="evaluation-metrics" value="8つの評価指標&lt;br&gt;・教育&lt;br&gt;・技術開発&lt;br&gt;・競争力&lt;br&gt;・経済生産&lt;br&gt;・世界貿易&lt;br&gt;・軍事力&lt;br&gt;・金融センター&lt;br&gt;・準備通貨" style="shape=cylinder3;whiteSpace=wrap;html=1;boundedLbl=1;backgroundOutline=1;size=15;fillColor=#E0F7FA;strokeColor=#006064;strokeWidth=2;" vertex="1" parent="1">
          <mxGeometry x="300" y="600" width="150" height="120" as="geometry" />
        </mxCell>
        
        <!-- 外部システム -->
        <mxCell id="external-challenger" value="外部の挑戦者" style="shape=umlActor;verticalLabelPosition=bottom;verticalAlign=top;html=1;outlineConnect=0;fillColor=#FCE4EC;strokeColor=#AD1457;strokeWidth=2;" vertex="1" parent="1">
          <mxGeometry x="1000" y="300" width="30" height="60" as="geometry" />
        </mxCell>
        
        <mxCell id="international-situation" value="国際情勢" style="shape=umlActor;verticalLabelPosition=bottom;verticalAlign=top;html=1;outlineConnect=0;fillColor=#FCE4EC;strokeColor=#AD1457;strokeWidth=2;" vertex="1" parent="1">
          <mxGeometry x="1000" y="450" width="30" height="60" as="geometry" />
        </mxCell>
        
        <!-- 矢印（フロー） -->
        <!-- 帝国の循環 -->
        <mxCell id="dutch-to-british" style="edgeStyle=orthogonalEdgeStyle;rounded=0;orthogonalLoop=1;jettySize=auto;html=1;exitX=1;exitY=0.5;exitDx=0;exitDy=0;entryX=0;entryY=0.5;entryDx=0;entryDy=0;strokeColor=#333333;strokeWidth=2;" edge="1" parent="1" source="dutch-empire" target="british-empire">
          <mxGeometry relative="1" as="geometry" />
        </mxCell>
        
        <mxCell id="british-to-american" style="edgeStyle=orthogonalEdgeStyle;rounded=0;orthogonalLoop=1;jettySize=auto;html=1;exitX=1;exitY=0.5;exitDx=0;exitDy=0;entryX=0;entryY=0.5;entryDx=0;entryDy=0;strokeColor=#333333;strokeWidth=2;" edge="1" parent="1" source="british-empire" target="american-empire">
          <mxGeometry relative="1" as="geometry" />
        </mxCell>
        
        <mxCell id="american-to-chinese" style="edgeStyle=orthogonalEdgeStyle;rounded=0;orthogonalLoop=1;jettySize=auto;html=1;exitX=1;exitY=0.5;exitDx=0;exitDy=0;entryX=0;entryY=0.5;entryDx=0;entryDy=0;strokeColor=#333333;strokeWidth=2;" edge="1" parent="1" source="american-empire" target="chinese-empire">
          <mxGeometry relative="1" as="geometry" />
        </mxCell>
        
        <!-- 段階のフロー -->
        <mxCell id="rising-to-peak" style="edgeStyle=orthogonalEdgeStyle;rounded=0;orthogonalLoop=1;jettySize=auto;html=1;exitX=1;exitY=0.5;exitDx=0;exitDy=0;entryX=0;entryY=0.5;entryDx=0;entryDy=0;strokeColor=#333333;strokeWidth=2;" edge="1" parent="1" source="rising-phase" target="peak-phase">
          <mxGeometry relative="1" as="geometry" />
        </mxCell>
        
        <mxCell id="peak-to-decline" style="edgeStyle=orthogonalEdgeStyle;rounded=0;orthogonalLoop=1;jettySize=auto;html=1;exitX=1;exitY=0.5;exitDx=0;exitDy=0;entryX=0;entryY=0.5;entryDx=0;entryDy=0;strokeColor=#333333;strokeWidth=2;" edge="1" parent="1" source="peak-phase" target="decline-phase">
          <mxGeometry relative="1" as="geometry" />
        </mxCell>
        
        <!-- 判定からの矢印 -->
        <mxCell id="war-to-rising" style="edgeStyle=orthogonalEdgeStyle;rounded=0;orthogonalLoop=1;jettySize=auto;html=1;exitX=0.5;exitY=0;exitDx=0;exitDy=0;entryX=0.5;entryY=1;entryDx=0;entryDy=0;strokeColor=#2E7D32;strokeWidth=2;" edge="1" parent="1" source="war-victory" target="rising-phase">
          <mxGeometry relative="1" as="geometry" />
        </mxCell>
        
        <mxCell id="fiscal-to-decline" style="edgeStyle=orthogonalEdgeStyle;rounded=0;orthogonalLoop=1;jettySize=auto;html=1;exitX=1;exitY=0.5;exitDx=0;exitDy=0;entryX=0;entryY=1;entryDx=0;entryDy=0;strokeColor=#D32F2F;strokeWidth=2;" edge="1" parent="1" source="fiscal-health" target="decline-phase">
          <mxGeometry relative="1" as="geometry" />
        </mxCell>
        
        <mxCell id="conflict-to-challenger" style="edgeStyle=orthogonalEdgeStyle;rounded=0;orthogonalLoop=1;jettySize=auto;html=1;exitX=1;exitY=0.5;exitDx=0;exitDy=0;entryX=0;entryY=0.5;entryDx=0;entryDy=0;strokeColor=#D32F2F;strokeWidth=2;" edge="1" parent="1" source="internal-conflict" target="new-challenger">
          <mxGeometry relative="1" as="geometry" />
        </mxCell>
        
        <!-- データとの関係 -->
        <mxCell id="historical-to-metrics" style="edgeStyle=orthogonalEdgeStyle;rounded=0;orthogonalLoop=1;jettySize=auto;html=1;exitX=1;exitY=0.5;exitDx=0;exitDy=0;entryX=0;entryY=0.5;entryDx=0;entryDy=0;strokeColor=#006064;strokeWidth=2;" edge="1" parent="1" source="historical-data" target="evaluation-metrics">
          <mxGeometry relative="1" as="geometry" />
        </mxCell>
        
        <mxCell id="metrics-to-rising" style="edgeStyle=orthogonalEdgeStyle;rounded=0;orthogonalLoop=1;jettySize=auto;html=1;exitX=0.5;exitY=0;exitDx=0;exitDy=0;entryX=0.5;entryY=1;entryDx=0;entryDy=0;strokeColor=#006064;strokeWidth=2;" edge="1" parent="1" source="evaluation-metrics" target="rising-phase">
          <mxGeometry relative="1" as="geometry" />
        </mxCell>
        
        <!-- 外部要因 -->
        <mxCell id="challenger-to-new" style="edgeStyle=orthogonalEdgeStyle;rounded=0;orthogonalLoop=1;jettySize=auto;html=1;exitX=0;exitY=0.5;exitDx=0;exitDy=0;entryX=1;entryY=0.5;entryDx=0;entryDy=0;strokeColor=#AD1457;strokeWidth=2;" edge="1" parent="1" source="external-challenger" target="new-challenger">
          <mxGeometry relative="1" as="geometry" />
        </mxCell>
        
        <mxCell id="situation-to-war" style="edgeStyle=orthogonalEdgeStyle;rounded=0;orthogonalLoop=1;jettySize=auto;html=1;exitX=0;exitY=0.5;exitDx=0;exitDy=0;entryX=1;entryY=0;entryDx=0;entryDy=0;strokeColor=#AD1457;strokeWidth=2;" edge="1" parent="1" source="international-situation" target="war-victory">
          <mxGeometry relative="1" as="geometry" />
        </mxCell>
        
        <!-- 循環の矢印 -->
        <mxCell id="cycle-return" style="edgeStyle=orthogonalEdgeStyle;rounded=0;orthogonalLoop=1;jettySize=auto;html=1;exitX=0.5;exitY=1;exitDx=0;exitDy=0;entryX=0.5;entryY=1;entryDx=0;entryDy=0;strokeColor=#7B1FA2;strokeWidth=2;strokeDashArray=5 5;" edge="1" parent="1" source="new-challenger" target="war-victory">
          <mxGeometry relative="1" as="geometry">
            <Array as="points">
              <mxPoint x="900" y="580" />
              <mxPoint x="230" y="580" />
            </Array>
          </mxGeometry>
        </mxCell>
        
        <!-- ラベル -->
        <mxCell id="yes-label1" value="Yes" style="text;html=1;strokeColor=none;fillColor=none;align=center;verticalAlign=middle;whiteSpace=wrap;rounded=0;fontSize=12;fontColor=#2E7D32;" vertex="1" parent="1">
          <mxGeometry x="250" y="380" width="30" height="20" as="geometry" />
        </mxCell>
        
        <mxCell id="no-label1" value="No" style="text;html=1;strokeColor=none;fillColor=none;align=center;verticalAlign=middle;whiteSpace=wrap;rounded=0;fontSize=12;fontColor=#D32F2F;" vertex="1" parent="1">
          <mxGeometry x="520" y="420" width="30" height="20" as="geometry" />
        </mxCell>
        
        <mxCell id="yes-label2" value="Yes" style="text;html=1;strokeColor=none;fillColor=none;align=center;verticalAlign=middle;whiteSpace=wrap;rounded=0;fontSize=12;fontColor=#D32F2F;" vertex="1" parent="1">
          <mxGeometry x="750" y="470" width="30" height="20" as="geometry" />
        </mxCell>
        
        <mxCell id="yes-label3" value="Yes" style="text;html=1;strokeColor=none;fillColor=none;align=center;verticalAlign=middle;whiteSpace=wrap;rounded=0;fontSize=12;fontColor=#D32F2F;" vertex="1" parent="1">
          <mxGeometry x="950" y="470" width="30" height="20" as="geometry" />
        </mxCell>
        
        <!-- 凡例 -->
        <mxCell id="legend-title" value="凡例" style="text;html=1;strokeColor=none;fillColor=none;align=center;verticalAlign=middle;whiteSpace=wrap;rounded=0;fontSize=14;fontStyle=1;" vertex="1" parent="1">
          <mxGeometry x="1200" y="150" width="60" height="30" as="geometry" />
        </mxCell>
        
        <mxCell id="legend-entity" value="帝国・エンティティ" style="rounded=1;whiteSpace=wrap;html=1;fillColor=#E8F5E9;strokeColor=#2E7D32;strokeWidth=2;" vertex="1" parent="1">
          <mxGeometry x="1200" y="190" width="120" height="30" as="geometry" />
        </mxCell>
        
        <mxCell id="legend-process" value="プロセス・段階" style="ellipse;whiteSpace=wrap;html=1;fillColor=#FFFDE7;strokeColor=#FBC02D;strokeWidth=2;" vertex="1" parent="1">
          <mxGeometry x="1200" y="240" width="120" height="30" as="geometry" />
        </mxCell>
        
        <mxCell id="legend-decision" value="判定・分岐" style="rhombus;whiteSpace=wrap;html=1;fillColor=#F3E5F5;strokeColor=#7B1FA2;strokeWidth=2;" vertex="1" parent="1">
          <mxGeometry x="1200" y="290" width="120" height="30" as="geometry" />
        </mxCell>
        
        <mxCell id="legend-data" value="データストア" style="shape=cylinder3;whiteSpace=wrap;html=1;boundedLbl=1;backgroundOutline=1;size=15;fillColor=#E0F7FA;strokeColor=#006064;strokeWidth=2;" vertex="1" parent="1">
          <mxGeometry x="1200" y="340" width="120" height="30" as="geometry" />
        </mxCell>
        
        <mxCell id="legend-external" value="外部システム" style="shape=umlActor;verticalLabelPosition=bottom;verticalAlign=top;html=1;outlineConnect=0;fillColor=#FCE4EC;strokeColor=#AD1457;strokeWidth=2;" vertex="1" parent="1">
          <mxGeometry x="1245" y="390" width="30" height="30" as="geometry" />
        </mxCell>
        
      </root>
    </mxGraphModel>
  </diagram>
</mxfile> 